<svg width="49" height="49" viewBox="0 0 49 49" fill="none" xmlns="http://www.w3.org/2000/svg">
<path d="M8.01055 2.08358C8.01055 1.68462 8.16903 1.30201 8.45114 1.01991C8.73324 0.73781 9.11585 0.579327 9.5148 0.579327H39.5998C39.9988 0.579327 40.3814 0.73781 40.6635 1.01991C40.9456 1.30201 41.1041 1.68462 41.1041 2.08358C41.1041 3.70215 41.068 5.2425 41.0018 6.70463C42.1905 6.90148 43.3278 7.33437 44.3466 7.97777C45.3654 8.62117 46.245 9.46206 46.9337 10.4508C47.6223 11.4396 48.1059 12.5563 48.3561 13.735C48.6063 14.9137 48.6179 16.1305 48.3903 17.3138C48.1627 18.497 47.7005 19.6227 47.0309 20.6245C46.3613 21.6262 45.4978 22.4838 44.4915 23.1465C43.4852 23.8093 42.3564 24.2638 41.1716 24.4833C39.9868 24.7029 38.7701 24.6829 37.5931 24.4247C35.2164 30.0356 31.9432 32.7793 29.0701 33.4833V40.0208L33.3572 41.0918C33.9408 41.2362 34.4914 41.4979 34.9727 41.859L40.5024 46.0077C40.7549 46.1971 40.9415 46.4612 41.0356 46.7626C41.1298 47.0639 41.1267 47.3872 41.0269 47.6868C40.927 47.9863 40.7355 48.2468 40.4794 48.4314C40.2232 48.616 39.9155 48.7153 39.5998 48.7153H9.5148C9.19909 48.7153 8.89137 48.616 8.63525 48.4314C8.37913 48.2468 8.18758 47.9863 8.08775 47.6868C7.98791 47.3872 7.98484 47.0639 8.07897 46.7626C8.17311 46.4612 8.35968 46.1971 8.61225 46.0077L14.1419 41.859C14.6232 41.4979 15.1738 41.2362 15.7574 41.0918L20.0446 40.0208V33.4833C17.1714 32.7793 13.8982 30.0356 11.5215 24.4217C10.3439 24.6813 9.12625 24.7023 7.94043 24.4835C6.7546 24.2647 5.62465 23.8104 4.6173 23.1476C3.60996 22.4848 2.74564 21.6269 2.0754 20.6244C1.40516 19.622 0.94259 18.4955 0.715003 17.3113C0.487416 16.1271 0.49943 14.9093 0.750334 13.7299C1.00124 12.5504 1.48595 11.4332 2.17583 10.4442C2.86572 9.45521 3.74679 8.61448 4.76702 7.97167C5.78724 7.32886 6.92594 6.89701 8.11585 6.70162C8.04502 5.1633 8.00991 3.62353 8.01055 2.08358ZM8.30839 9.72517C6.73852 10.0124 5.34705 10.9115 4.44009 12.2247C3.53313 13.5379 3.18498 15.1576 3.47223 16.7275C3.75947 18.2973 4.65859 19.6888 5.97177 20.5958C7.28495 21.5027 8.90464 21.8509 10.4745 21.5636C9.47268 18.4047 8.70552 14.5057 8.30839 9.72517ZM38.6431 21.5636C40.213 21.8509 41.8327 21.5027 43.1458 20.5958C44.459 19.6888 45.3581 18.2973 45.6454 16.7275C45.9326 15.1576 45.5845 13.5379 44.6775 12.2247C43.7706 10.9115 42.3791 10.0124 40.8092 9.72517C40.4091 14.5087 39.6419 18.4047 38.6431 21.5636ZM11.0311 3.58783C11.0521 5.14322 11.1093 6.61438 11.1996 8.00731C11.5907 14.1086 12.5744 18.6755 13.817 22.048C16.4163 29.0999 19.9964 30.6643 21.5488 30.6643C21.9478 30.6643 22.3304 30.8228 22.6125 31.1049C22.8946 31.387 23.0531 31.7696 23.0531 32.1686V40.0208C23.053 40.6914 22.8289 41.3429 22.4163 41.8716C22.0037 42.4003 21.4262 42.776 20.7756 42.939L16.4855 44.01C16.2907 44.0585 16.1076 44.1454 15.947 44.2658L14.0276 45.7068H35.0871L33.1676 44.2658C33.006 44.1451 32.8219 44.0582 32.6261 44.01L28.339 42.939C27.6884 42.776 27.1109 42.4003 26.6983 41.8716C26.2857 41.3429 26.0616 40.6914 26.0616 40.0208V32.1686C26.0616 31.7696 26.22 31.387 26.5021 31.1049C26.7842 30.8228 27.1668 30.6643 27.5658 30.6643C29.1182 30.6643 32.6983 29.0999 35.2976 22.048C36.5402 18.6785 37.5239 14.1055 37.915 8.00731C38.0053 6.61438 38.0625 5.14322 38.0835 3.58783H11.0311Z" fill="black"/>
</svg>
